<?xml version="1.0" encoding="UTF-8"?>
<svg xmlns="http://www.w3.org/2000/svg" xmlns:xlink="http://www.w3.org/1999/xlink" width="64pt" height="64pt" viewBox="0 0 64 64" version="1.1">
<g id="surface12588597">
<path style=" stroke:none;fill-rule:nonzero;fill:rgb(100%,45.490196%,0.784314%);fill-opacity:1;" d="M 0 32 C 0 14.328125 14.328125 0 32 0 C 49.671875 0 64 14.328125 64 32 C 64 49.671875 49.671875 64 32 64 C 14.328125 64 0 49.671875 0 32 Z M 32 60.160156 C 47.550781 60.160156 60.160156 47.550781 60.160156 32 C 60.160156 16.449219 47.550781 3.839844 32 3.839844 C 16.449219 3.839844 3.839844 16.449219 3.839844 32 C 3.839844 47.550781 16.449219 60.160156 32 60.160156 Z M 32 60.160156 "/>
<path style=" stroke:none;fill-rule:nonzero;fill:rgb(0%,0%,0%);fill-opacity:1;" d="M 17.777344 19.761719 C 16.972656 19.761719 16.308594 20.421875 16.308594 21.230469 L 16.308594 41.828125 C 16.308594 42.636719 16.972656 43.296875 17.777344 43.296875 L 35.949219 43.296875 C 37.078125 45.066406 39.0625 46.238281 41.316406 46.238281 C 44.832031 46.238281 47.691406 43.382812 47.691406 39.863281 C 47.691406 37.21875 46.070312 34.941406 43.769531 33.980469 L 43.769531 21.230469 C 43.769531 20.421875 43.105469 19.761719 42.296875 19.761719 Z M 17.777344 20.742188 L 42.296875 20.742188 C 42.566406 20.742188 42.789062 20.960938 42.789062 21.230469 L 42.789062 22.703125 L 17.289062 22.703125 L 17.289062 21.230469 C 17.289062 20.960938 17.507812 20.742188 17.777344 20.742188 Z M 17.289062 23.683594 L 42.789062 23.683594 L 42.789062 33.660156 C 42.316406 33.550781 41.824219 33.492188 41.316406 33.492188 C 41.046875 33.492188 40.828125 33.710938 40.828125 33.980469 L 40.828125 35.941406 C 40.828125 36.210938 41.046875 36.433594 41.316406 36.433594 C 41.585938 36.433594 41.808594 36.210938 41.808594 35.941406 L 41.808594 34.492188 C 42.144531 34.519531 42.46875 34.585938 42.789062 34.671875 C 43.132812 34.769531 43.460938 34.902344 43.769531 35.058594 C 45.515625 35.957031 46.710938 37.773438 46.710938 39.863281 C 46.710938 42.84375 44.292969 45.257812 41.316406 45.257812 C 39.644531 45.257812 38.144531 44.496094 37.15625 43.296875 C 36.902344 42.992188 36.6875 42.664062 36.511719 42.316406 C 36.132812 41.582031 35.921875 40.75 35.921875 39.863281 C 35.921875 38.585938 36.363281 37.382812 37.171875 36.414062 L 40.371094 39.613281 C 40.351562 39.695312 40.335938 39.777344 40.335938 39.863281 C 40.335938 40.40625 40.777344 40.847656 41.316406 40.847656 C 41.855469 40.847656 42.296875 40.40625 42.296875 39.863281 C 42.296875 39.324219 41.855469 38.882812 41.316406 38.882812 C 41.230469 38.882812 41.148438 38.898438 41.066406 38.921875 L 37.621094 35.476562 C 37.597656 35.453125 37.570312 35.445312 37.546875 35.425781 C 37.53125 35.402344 37.523438 35.378906 37.5 35.359375 C 37.3125 35.167969 37 35.167969 36.8125 35.359375 C 35.601562 36.558594 34.941406 38.164062 34.941406 39.863281 C 34.941406 40.734375 35.117188 41.5625 35.433594 42.316406 L 17.777344 42.316406 C 17.507812 42.316406 17.289062 42.097656 17.289062 41.828125 Z M 23.664062 25.644531 C 23.539062 25.644531 23.414062 25.691406 23.316406 25.789062 L 21.703125 27.402344 L 21.066406 26.769531 C 20.875 26.578125 20.566406 26.578125 20.375 26.769531 C 20.183594 26.960938 20.183594 27.269531 20.375 27.460938 L 21.355469 28.441406 C 21.453125 28.539062 21.574219 28.585938 21.703125 28.585938 C 21.828125 28.585938 21.953125 28.539062 22.050781 28.441406 L 24.011719 26.480469 C 24.203125 26.289062 24.203125 25.980469 24.011719 25.789062 C 23.914062 25.691406 23.789062 25.644531 23.664062 25.644531 Z M 25.625 26.625 C 25.355469 26.625 25.136719 26.84375 25.136719 27.117188 C 25.136719 27.386719 25.355469 27.605469 25.625 27.605469 L 27.585938 27.605469 C 27.855469 27.605469 28.078125 27.386719 28.078125 27.117188 C 28.078125 26.84375 27.855469 26.625 27.585938 26.625 Z M 29.546875 26.625 C 29.277344 26.625 29.058594 26.84375 29.058594 27.117188 C 29.058594 27.386719 29.277344 27.605469 29.546875 27.605469 L 37.394531 27.605469 C 37.664062 27.605469 37.882812 27.386719 37.882812 27.117188 C 37.882812 26.84375 37.664062 26.625 37.394531 26.625 Z M 23.664062 29.566406 C 23.539062 29.566406 23.414062 29.617188 23.316406 29.710938 L 21.703125 31.324219 L 21.066406 30.691406 C 20.875 30.5 20.566406 30.5 20.375 30.691406 C 20.183594 30.882812 20.183594 31.195312 20.375 31.386719 L 21.355469 32.367188 C 21.453125 32.460938 21.574219 32.507812 21.703125 32.507812 C 21.828125 32.507812 21.953125 32.460938 22.050781 32.367188 L 24.011719 30.40625 C 24.203125 30.214844 24.203125 29.902344 24.011719 29.710938 C 23.914062 29.617188 23.789062 29.566406 23.664062 29.566406 Z M 25.625 30.546875 C 25.355469 30.546875 25.136719 30.765625 25.136719 31.039062 C 25.136719 31.308594 25.355469 31.527344 25.625 31.527344 L 37.394531 31.527344 C 37.664062 31.527344 37.882812 31.308594 37.882812 31.039062 C 37.882812 30.765625 37.664062 30.546875 37.394531 30.546875 Z M 23.664062 33.492188 C 23.539062 33.492188 23.414062 33.539062 23.316406 33.632812 L 21.703125 35.25 L 21.066406 34.613281 C 20.875 34.421875 20.566406 34.421875 20.375 34.613281 C 20.183594 34.804688 20.183594 35.117188 20.375 35.308594 L 21.355469 36.289062 C 21.453125 36.382812 21.574219 36.433594 21.703125 36.433594 C 21.828125 36.433594 21.953125 36.382812 22.050781 36.289062 L 24.011719 34.328125 C 24.203125 34.136719 24.203125 33.824219 24.011719 33.632812 C 23.914062 33.539062 23.789062 33.492188 23.664062 33.492188 Z M 25.625 34.472656 C 25.355469 34.472656 25.136719 34.691406 25.136719 34.960938 C 25.136719 35.234375 25.355469 35.453125 25.625 35.453125 L 33.472656 35.453125 C 33.742188 35.453125 33.960938 35.234375 33.960938 34.960938 C 33.960938 34.691406 33.742188 34.472656 33.472656 34.472656 Z M 19.25 39.375 C 18.980469 39.375 18.761719 39.59375 18.761719 39.863281 L 18.761719 40.847656 C 18.761719 41.117188 18.980469 41.335938 19.25 41.335938 C 19.519531 41.335938 19.742188 41.117188 19.742188 40.847656 L 19.742188 39.863281 C 19.742188 39.59375 19.519531 39.375 19.25 39.375 Z M 21.703125 39.375 C 21.433594 39.375 21.210938 39.59375 21.210938 39.863281 L 21.210938 40.847656 C 21.210938 41.117188 21.433594 41.335938 21.703125 41.335938 C 21.972656 41.335938 22.191406 41.117188 22.191406 40.847656 L 22.191406 39.863281 C 22.191406 39.59375 21.972656 39.375 21.703125 39.375 Z M 24.152344 39.375 C 23.882812 39.375 23.664062 39.59375 23.664062 39.863281 L 23.664062 40.847656 C 23.664062 41.117188 23.882812 41.335938 24.152344 41.335938 C 24.425781 41.335938 24.644531 41.117188 24.644531 40.847656 L 24.644531 39.863281 C 24.644531 39.59375 24.425781 39.375 24.152344 39.375 Z M 26.605469 39.375 C 26.335938 39.375 26.117188 39.59375 26.117188 39.863281 L 26.117188 40.847656 C 26.117188 41.117188 26.335938 41.335938 26.605469 41.335938 C 26.875 41.335938 27.097656 41.117188 27.097656 40.847656 L 27.097656 39.863281 C 27.097656 39.59375 26.875 39.375 26.605469 39.375 Z M 29.058594 39.375 C 28.789062 39.375 28.566406 39.59375 28.566406 39.863281 L 28.566406 40.847656 C 28.566406 41.117188 28.789062 41.335938 29.058594 41.335938 C 29.328125 41.335938 29.546875 41.117188 29.546875 40.847656 L 29.546875 39.863281 C 29.546875 39.59375 29.328125 39.375 29.058594 39.375 Z M 31.507812 39.375 C 31.238281 39.375 31.019531 39.59375 31.019531 39.863281 L 31.019531 40.847656 C 31.019531 41.117188 31.238281 41.335938 31.507812 41.335938 C 31.78125 41.335938 32 41.117188 32 40.847656 L 32 39.863281 C 32 39.59375 31.78125 39.375 31.507812 39.375 Z M 33.960938 39.375 C 33.691406 39.375 33.472656 39.59375 33.472656 39.863281 L 33.472656 40.847656 C 33.472656 41.117188 33.691406 41.335938 33.960938 41.335938 C 34.230469 41.335938 34.453125 41.117188 34.453125 40.847656 L 34.453125 39.863281 C 34.453125 39.59375 34.230469 39.375 33.960938 39.375 Z M 33.960938 39.375 "/>
</g>
</svg>
